<?xml version="1.0" encoding="utf-8"?>
<!-- Generator: Adobe Illustrator 28.2.0, SVG Export Plug-In . SVG Version: 6.00 Build 0)  -->
<svg version="1.1" id="Calque_1" xmlns="http://www.w3.org/2000/svg" xmlns:xlink="http://www.w3.org/1999/xlink" x="0px" y="0px"
	 viewBox="0 0 648.4 252.1" style="enable-background:new 0 0 648.4 252.1;" xml:space="preserve">
<style type="text/css">
	.st0{fill:#FFFFFF;}
	.st1{fill:#ED130D;}
</style>
<g>
	<path class="st0" d="M457.8,128.1c0-6.8-1.4-13-3.8-18.5c-0.4-2.1-0.6-4.2-0.6-6.3l-0.1-26.4c-0.1-18.7-14.8-33.9-32.8-33.8
		l-18.6,0.1c-18,0.1-32.6,15.4-32.5,34.1l0.1,26.7c0,1.1,0,2.1-0.1,3.1c-3.1,6.1-4.9,13.1-4.9,20.9c0,0.5,0,1,0,1.5h0.1
		c0,0.2,0,0.5,0,0.7c0,25.7,20.9,46.6,46.6,46.6s46.6-20.9,46.6-46.6c0-0.2,0-0.5,0-0.7h0.1C457.8,129.1,457.8,128.6,457.8,128.1z
		 M440.4,89.7c1-1.3,1.7-2.7,2.2-4.3c0.9-3,1-6.1,0.8-9.2c1.3,3.4,2.4,8.8,2.3,12.5c-0.1,2.7-0.2,5.1-1,7.4c-1.8-1.8-3.8-3.3-6-4.8
		C439.3,90.9,439.9,90.3,440.4,89.7z M395.7,48.1c3.2-0.8,6.5-0.6,9.8-0.7c3.3-0.1,6.6-0.2,10-0.2c2.9,0,5.7,0,8.6,0.2
		c-5,1.1-10,1.7-15.1,2.2c-3.4,0.3-6.8,0.3-10.1,0.5c-3.3,0.2-6.6,1.2-9.6,2.7c-2.8,1.4-5.4,3.2-7.9,5.1
		C385.1,53.2,389.9,49.5,395.7,48.1z M374.1,100.1c0.1-6.5-0.3-16.5,0.1-19.9c0.4,3.9,1.6,10.1,2.8,13c0.5,1.1,1.3,1.6,2.2,1.7
		C377.3,96.5,375.6,98.3,374.1,100.1z M378.4,130.2c-3.5-23.5,17.9-27.6,17.9-27.6C385.1,110,381.9,117.3,378.4,130.2z M389.6,88.1
		c-2.1,0-4.1-1.3-5-3.5c-1.2-2.9-1.7-6.2-1.3-9.7c1-10,9.4-17.4,19-17.4l17.9-0.1c9.6-0.1,18,7.3,19.2,17.2c0.4,3.6-0.1,6.9-1.3,10
		c-1.1,2.8-4.3,4-6.9,2.8l0,0c-6-2.5-12.8-3.9-19.9-3.9C403.4,83.5,396.1,85.1,389.6,88.1z M418.2,169.2
		c18.2-11.9,23.5-23.9,29.1-44.8C453,162.6,418.2,169.2,418.2,169.2z"/>
	<path class="st0" d="M335.1,176l-7.9-30.7H324V176h-24.5V83.7h32.1c16.7,0,28.8,13,28.8,29.9c0,15.1-6.2,22.3-10.9,25.7l11.8,36.7
		H335.1z M335.7,114.6c0-6.1-3.2-9.5-8-9.5H324v19h3.6C332.5,124,335.7,120.5,335.7,114.6z"/>
	<path class="st0" d="M498.2,176l-1.9-12.9h-14.8l-1.8,12.9h-25l20.2-92.3H503l20.3,92.3H498.2z M488.9,110.3l-4.6,31.6h9.1
		L488.9,110.3z"/>
	<path class="st0" d="M527.8,176V83.7h28.5c25.2,0,35.8,20.3,35.8,46.2c0,26.2-10.4,46.1-35.7,46.1H527.8z M567.2,130
		c0-18.8-4.4-24.9-10.9-24.9h-4v49.7h4C562.9,154.7,567.2,147.5,567.2,130z"/>
</g>
<g>
	<path class="st0" d="M65.4,176V83.7h46.5V105h-22v13.6h21v21.3h-21V176H65.4z"/>
	<path class="st0" d="M120.7,176V83.7h24.5V176H120.7z"/>
	<path class="st0" d="M166.8,176v-71h-13.4V83.7h51.2V105h-13.3v71H166.8z"/>
	<g>
		<path class="st1" d="M214.3,108.1c0-14.7,5.6-25,17.6-25s17.6,10.4,17.6,25s-5.6,25-17.6,25C219.9,133.1,214.3,122.7,214.3,108.1z
			 M236.5,108.1c0-8.3-1.2-13.7-4.6-13.7c-3.4,0-4.6,5.4-4.6,13.7c0,8.2,1.2,13.7,4.6,13.7C235.3,121.8,236.5,116.3,236.5,108.1z"/>
		<path class="st1" d="M274.5,132.2l-7.8-20.1v20.1h-12.8V83.8h12.8l7,18.9V83.8h12.8v48.4L274.5,132.2L274.5,132.2z"/>
		<path class="st1" d="M219.4,175.9v-28.7H214v-8.6h20.7v8.6h-5.4v28.7H219.4z"/>
		<path class="st1" d="M253.3,175.9V161h-5.4v14.9H238v-37.4h9.9v13.8h5.4v-13.8h9.9v37.4H253.3z"/>
		<path class="st1" d="M267.8,175.9v-37.4h18.8v8.6h-8.9v5.5h8.5v8.6h-8.5v6h8.9v8.6L267.8,175.9L267.8,175.9z"/>
	</g>
</g>
</svg>
