<?xml version="1.0" encoding="utf-8"?>
<!-- Generator: Adobe Illustrator 28.2.0, SVG Export Plug-In . SVG Version: 6.00 Build 0)  -->
<svg version="1.1" id="Calque_1" xmlns="http://www.w3.org/2000/svg" xmlns:xlink="http://www.w3.org/1999/xlink" x="0px" y="0px"
	 viewBox="0 0 310.3 314.3" style="enable-background:new 0 0 310.3 314.3;" xml:space="preserve">
<style type="text/css">
	.st0{fill:#E31D1A;}
</style>
<path class="st0" d="M238.7,190.8c0-12.7-2.5-24.4-7.1-34.6c-0.8-3.9-1.2-7.8-1.2-11.8L230.2,95c-0.2-35-27.6-63.3-61.4-63.1
	l-34.7,0.2c-33.7,0.2-60.9,28.7-60.7,63.8l0.2,50c0,2-0.1,3.9-0.3,5.9c-5.9,11.3-9.2,24.5-9.2,39c0,0.9,0,1.8,0,2.8h0.1
	c0,0.4-0.1,0.9-0.1,1.3c0,48.1,39,87.2,87.2,87.2c48.1,0,87.2-39,87.2-87.2c0-0.4-0.1-0.9-0.1-1.3h0.1
	C238.7,192.6,238.7,191.7,238.7,190.8z M111.2,116c-3.9,0.1-7.7-2.4-9.3-6.5c-2.2-5.5-3.1-11.7-2.5-18.1c2-18.6,17.5-32.5,35.5-32.6
	l33.4-0.2c18-0.1,33.7,13.6,35.8,32.2c0.8,6.6-0.2,13-2.5,18.6c-2.1,5.2-8,7.5-13,5.2l0,0c-11.3-4.8-23.9-7.3-37.3-7.3
	C136.9,107.4,123.2,110.4,111.2,116z"/>
</svg>
