<?xml version="1.0" encoding="utf-8"?>
<!-- Generator: Adobe Illustrator 28.2.0, SVG Export Plug-In . SVG Version: 6.00 Build 0)  -->
<svg version="1.1" id="Calque_1" xmlns="http://www.w3.org/2000/svg" xmlns:xlink="http://www.w3.org/1999/xlink" x="0px" y="0px"
	 viewBox="0 0 648.4 252.1" style="enable-background:new 0 0 648.4 252.1;" xml:space="preserve">
<style type="text/css">
	.st0{fill:#FFFFFF;}
	.st1{fill:#ED130D;}
</style>
<g>
	<path class="st0" d="M448.3,151c-0.4-0.4-0.8-0.7-1.3-0.9c3.9-7,6.2-15.2,6.2-23.9c0-6.7-1.3-12.8-3.7-18.2c-0.4-2-0.6-4.1-0.6-6.2
		l-0.1-25.9c-0.1-18.4-14.5-33.3-32.3-33.2l-18.3,0.1c-17.7,0.1-32,15.1-31.9,33.5l0.1,26.3c0,1,0,2.1-0.1,3.1
		c-3.1,6-4.8,12.9-4.8,20.5c0,8.7,2.2,16.9,6.2,23.9c-0.5,0.3-0.9,0.6-1.3,0.9c-4.2,3.9-2.7,12.6,3.3,19.5c0.6,0.7,1.3,1.4,1.9,2
		l10.8,1.2l4.8,25.6l6.6,0.9l-1.1-17.4l2.1,0.7l1.2,17l10.1,1.4V185h2.5v16.8l10.7-1.4l1.2-16.9l2.1-0.7l-1.1,17.4l6.3-0.8l4.9-25.7
		l10.2-1.1c0.7-0.6,1.3-1.3,1.9-2C451,163.5,452.5,154.8,448.3,151z M435.1,73.6c0.4,3.5-0.1,6.8-1.3,9.8c-1.1,2.7-4.2,4-6.8,2.7
		l0,0c-5.9-2.5-12.6-3.8-19.6-3.8c-7.6,0-14.8,1.6-21.2,4.5c-2.1,0-4.1-1.3-4.9-3.4c-1.2-2.9-1.7-6.1-1.3-9.5
		c1-9.8,9.2-17.1,18.7-17.1l17.6-0.1C425.7,56.7,434,63.8,435.1,73.6z M392.1,47.5c3.1-0.8,6.4-0.6,9.6-0.7c3.3-0.1,6.5-0.2,9.8-0.2
		c2.8,0,5.7,0,8.5,0.2c-4.9,1.1-9.9,1.7-14.8,2.1c-3.3,0.3-6.6,0.3-10,0.5c-3.3,0.2-6.5,1.2-9.4,2.6c-2.8,1.4-5.3,3.2-7.8,5
		C381.7,52.6,386.4,48.9,392.1,47.5z M371,79.1c0.4,3.9,1.6,9.9,2.7,12.8c0.5,1.1,1.2,1.6,2.1,1.6c-1.8,1.6-3.4,3.3-4.9,5.1
		C371,92.2,370.6,82.5,371,79.1z M367.7,128c-4.6-30.8,23.5-36.1,23.5-36.1C376.5,101.5,372.2,111.1,367.7,128z M393.2,162.3
		c-15.3-0.4-18.8-8.5-18.8-8.5s1.6-3.2,1.9-10.1c10.5-1.4,24.5,4.8,24.5,4.8S400.6,154,393.2,162.3z M413.5,173.8l-6.1-6.3l-6.1,6.3
		l-4.2-4.4l10.3-12.8l10.3,12.8L413.5,173.8z M421.5,162.3c-7.4-8.3-7.6-13.7-7.6-13.7s14-6.3,24.5-4.8c0.4,6.9,1.9,10.1,1.9,10.1
		S436.9,161.9,421.5,162.3z M441.3,87.4c-0.1,2.7-0.2,5-1,7.3c-1.8-1.7-3.8-3.3-5.9-4.7c0.6-0.5,1.2-1.1,1.7-1.7
		c1-1.2,1.7-2.7,2.1-4.2c0.9-2.9,0.9-6,0.8-9C440.3,78.5,441.3,83.8,441.3,87.4z"/>
	<path class="st0" d="M63.5,173.6v-92h46.4v21.2H87.9v13.5h21v21.2h-21v36H63.5z"/>
	<path class="st0" d="M118.7,173.6v-92h24.4v92H118.7z"/>
	<path class="st0" d="M164.6,173.6v-70.8h-13.4V81.6h51v21.2H189v70.8H164.6z"/>
	<path class="st0" d="M332.4,173.6l-7.9-30.6h-3.2v30.6h-24.4v-92h32c16.7,0,28.7,13,28.7,29.8c0,15-6.2,22.2-10.9,25.7l11.7,36.6
		H332.4z M332.9,112.4c0-6.1-3.2-9.5-8-9.5h-3.6v18.9h3.6C329.8,121.8,332.9,118.3,332.9,112.4z"/>
	<path class="st0" d="M495.5,173.6l-1.9-12.8h-14.8l-1.8,12.8h-25l20.1-92h28l20.3,92H495.5z M486.3,108.1l-4.6,31.5h9.1
		L486.3,108.1z"/>
	<path class="st0" d="M525.9,173.6v-92h28.4c25.1,0,35.7,20.3,35.7,46.1c0,26.1-10.3,45.9-35.6,45.9H525.9z M565.3,127.7
		c0-18.8-4.4-24.8-10.9-24.8h-4v49.5h4C561,152.4,565.3,145.2,565.3,127.7z"/>
	<g>
		<path class="st1" d="M211.9,105.9c0-14.6,5.6-24.9,17.6-24.9c12,0,17.6,10.3,17.6,24.9s-5.6,24.9-17.6,24.9
			C217.5,130.8,211.9,120.5,211.9,105.9z M234.1,105.9c0-8.2-1.2-13.7-4.6-13.7c-3.4,0-4.6,5.4-4.6,13.7c0,8.2,1.2,13.7,4.6,13.7
			C232.9,119.5,234.1,114,234.1,105.9z"/>
		<path class="st1" d="M271.9,130l-7.8-20v20h-12.8V81.7h12.8l6.9,18.8V81.7h12.7V130H271.9z"/>
		<path class="st1" d="M217,173.5v-28.6h-5.4v-8.6h20.7v8.6h-5.4v28.6H217z"/>
		<path class="st1" d="M250.8,173.5v-14.9h-5.4v14.9h-9.9v-37.2h9.9v13.8h5.4v-13.8h9.8v37.2H250.8z"/>
		<path class="st1" d="M265.3,173.5v-37.2h18.8v8.6h-8.9v5.5h8.5v8.6h-8.5v6h8.9v8.6H265.3z"/>
	</g>
</g>
</svg>
